<?xml version="1.0" encoding="UTF-8" standalone="no"?>
<!-- Created with Inkscape (http://www.inkscape.org/) -->

<svg
   version="1.1"
   id="svg2"
   xml:space="preserve"
   width="593.22668"
   height="551.52002"
   viewBox="0 0 593.22668 551.52002"
   sodipodi:docname="3026200.eps"
   xmlns:inkscape="http://www.inkscape.org/namespaces/inkscape"
   xmlns:sodipodi="http://sodipodi.sourceforge.net/DTD/sodipodi-0.dtd"
   xmlns="http://www.w3.org/2000/svg"
   xmlns:svg="http://www.w3.org/2000/svg"><defs
     id="defs6" /><sodipodi:namedview
     id="namedview4"
     pagecolor="#ffffff"
     bordercolor="#666666"
     borderopacity="1.0"
     inkscape:pageshadow="2"
     inkscape:pageopacity="0.0"
     inkscape:pagecheckerboard="0" /><g
     id="g8"
     inkscape:groupmode="layer"
     inkscape:label="ink_ext_XXXXXX"
     transform="matrix(1.3333333,0,0,-1.3333333,0,551.52)"><g
       id="g10"
       transform="scale(0.1)"><path
         d="m 3797.64,2192.57 c 868.76,-501.57 868.76,-1314.8 0,-1816.379 -868.76,-501.582 -2277.31,-501.589 -3146.074,0 -868.761,501.571 -868.754,1314.789 0.008,1816.379 868.766,501.58 2277.306,501.58 3146.066,0"
         style="fill:#f3f2f1;fill-opacity:1;fill-rule:nonzero;stroke:none"
         id="path12" /><path
         d="m 2623.98,219.441 1091.39,630.11 c 23.92,13.801 23.92,36.187 0,50 L 1649.09,2092.53 c -23.92,13.81 -62.69,13.81 -86.6,0 L 471.094,1462.41 c -23.918,-13.81 -23.918,-36.2 0,-50 L 2537.38,219.441 c 23.92,-13.812 62.69,-13.812 86.6,0"
         style="fill:#dadbd8;fill-opacity:1;fill-rule:nonzero;stroke:none"
         id="path14" /><path
         d="m 679.836,1438.64 85.547,49.4 c 0,0 20.957,183.2 7.012,325.09 -19.59,199.38 -148.348,439.28 -301.957,382.94 -153.61,-56.34 70.429,-259.39 120.296,-428.5 49.871,-169.11 89.102,-328.93 89.102,-328.93"
         style="fill:#56C6FF;fill-opacity:1;fill-rule:nonzero;stroke:none"
         id="path16" /><path
         d="m 626.645,1641.38 c -10.942,39.74 -23.071,82.65 -35.911,126.19 -37.472,127.08 -173.3,273.32 -173.316,362.08 -0.008,29.35 14.844,52.42 53.02,66.42 15.496,5.68 30.734,8.35 45.64,8.35 132.828,0 238.703,-212.03 256.317,-391.29 2.687,-27.31 4.078,-56.17 4.574,-84.94 l -150.324,-86.81"
         style="fill:#1ab2ff;fill-opacity:1;fill-rule:nonzero;stroke:none"
         id="path18" /><path
         d="m 724.828,1459.44 h -0.176 c -2.863,0.09 -5.097,2.49 -5.004,5.35 15.028,443.02 -205.503,665.86 -207.73,668.06 -2.035,2.01 -2.063,5.29 -0.055,7.32 2.032,2.04 5.309,2.06 7.325,0.05 2.265,-2.23 225.992,-228.28 210.82,-675.78 -0.098,-2.8 -2.399,-5 -5.18,-5"
         style="fill:#ffffff;fill-opacity:1;fill-rule:nonzero;stroke:none"
         id="path20" /><path
         d="m 634.18,1403.29 60.871,35.15 c 0,0 10.359,125.72 -51.281,278.45 -53.661,132.96 -186.805,243.26 -253.766,220.08 -66.965,-23.18 -65.305,-70.66 -32.652,-120.47 32.644,-49.82 231.273,-168.54 276.828,-413.21"
         style="fill:#56C6FF;fill-opacity:1;fill-rule:nonzero;stroke:none"
         id="path22" /><path
         d="m 666.285,1416.65 h -0.015 c -2.86,0.02 -5.172,2.34 -5.157,5.21 1.203,280.1 -261.804,469.41 -264.465,471.3 -2.328,1.65 -2.89,4.88 -1.23,7.22 1.637,2.32 4.855,2.9 7.219,1.23 2.691,-1.91 270.062,-194.37 268.832,-479.8 -0.016,-2.85 -2.328,-5.16 -5.184,-5.16"
         style="fill:#ffffff;fill-opacity:1;fill-rule:nonzero;stroke:none"
         id="path24" /><path
         d="m 3601.96,4089.41 86.1,-49.71 c -0.43,3.84 -0.72,7.66 -0.72,11.39 v 24.95 c 0,44.39 31.16,62.39 69.61,40.19 15.57,-8.99 29.89,-23.23 41.49,-39.9 6.29,55.82 50.08,76.61 103.28,45.9 57.52,-33.2 104.14,-113.96 104.14,-180.37 v -37.32 c 0,-17.21 -3.18,-31.69 -8.81,-43.24 l 71.51,-41.29 c 21.33,-12.31 38.62,-42.25 38.62,-66.88 0,-24.62 -17.29,-34.6 -38.62,-22.29 l -466.6,269.4 c -21.33,12.31 -38.62,42.25 -38.62,66.88 0,24.62 17.29,34.6 38.62,22.29"
         style="fill:#e7e8e5;fill-opacity:1;fill-rule:nonzero;stroke:none"
         id="path26" /><path
         d="m 3244.19,3867.59 63.12,-36.45 c -0.31,2.82 -0.53,5.62 -0.53,8.36 v 18.29 c 0,32.54 22.85,45.73 51.03,29.46 11.42,-6.59 21.91,-17.03 30.41,-29.25 4.62,40.92 36.73,56.16 75.72,33.65 42.16,-24.34 76.35,-83.54 76.35,-132.23 v -27.36 c 0,-12.61 -2.33,-23.23 -6.46,-31.7 l 52.43,-30.26 c 15.63,-9.03 28.3,-30.99 28.3,-49.03 0,-18.05 -12.67,-25.37 -28.3,-16.34 l -342.07,197.48 c -15.64,9.03 -28.31,30.98 -28.31,49.03 0,18.06 12.67,25.37 28.31,16.35"
         style="fill:#e7e8e5;fill-opacity:1;fill-rule:nonzero;stroke:none"
         id="path28" /><path
         d="m 3649.25,1063.75 c 15.51,-12.02 13.83,-29.08 -4.99,-39.88 L 2614.14,429.051 c -20.69,-11.871 -54.27,-11.879 -74.93,0.051 L 570.48,1565.74 c -19.05,11 -20.601,28.35 -4.398,40.31 -18.613,-13.18 -33.055,-39.78 -33.07,-62 l -0.059,-49.51 c -0.074,-23.89 16.707,-52.97 37.461,-64.96 L 2539.05,292.988 c 20.75,-11.976 54.33,-11.968 74.98,0.032 L 3644.2,887.711 c 20.68,11.867 37.48,40.969 37.46,64.898 l 0.11,49.611 c -0.05,21.91 -14.14,48.19 -32.52,61.53"
         style="fill:#33535f;fill-opacity:1;fill-rule:nonzero;stroke:none"
         id="path30" /><path
         d="m 3377.18,1159.02 c 17.69,-10.22 17.75,-26.81 -0.07,-37.05 L 2440.52,581.109 c -17.77,-10.148 -46.51,-10.23 -64.29,0.032 L 843.438,1466.1 c -17.782,10.27 -17.708,26.9 -0.02,37.1 l 936.682,540.81 c 17.73,10.29 36.18,16.19 53.87,5.98 l 1543.21,-890.97 m 267.08,-91.94 -1968.72,1136.64 c -20.67,11.94 -54.25,11.93 -74.94,0.06 L 570.48,1608.95 c -20.691,-11.87 -20.667,-31.28 0,-43.21 L 2539.21,429.102 c 20.66,-11.93 54.24,-11.922 74.93,-0.051 l 1030.12,594.819 c 20.69,11.88 20.67,31.28 0,43.21"
         style="fill:#273e47;fill-opacity:1;fill-rule:nonzero;stroke:none"
         id="path32" /><path
         d="m 566.082,1606.05 c -18.613,-13.19 -33.055,-39.78 -33.07,-62 l -0.059,-49.52 c 0.016,-23.93 16.707,-52.96 37.461,-64.95 L 2539.05,292.988 c 10.37,-5.988 23.97,-8.957 37.57,-8.988 l 0.07,136.16 c -13.61,0.02 -27.2,3 -37.48,8.942 L 570.48,1565.74 c -19.05,11 -20.605,28.35 -4.398,40.31"
         style="fill:#17282f;fill-opacity:1;fill-rule:nonzero;stroke:none"
         id="path34" /><path
         d="m 1184.35,1847.96 c 13.87,8.01 13.87,20.99 0,29 -13.87,8 -36.36,8 -50.23,0 -13.87,-8.01 -13.87,-20.99 0,-29 13.87,-8.02 36.36,-8.02 50.23,0"
         style="fill:#040606;fill-opacity:1;fill-rule:nonzero;stroke:none"
         id="path36" /><path
         d="m 3091,760.219 2.5,-4.328 c 17.28,9.929 26.99,23.769 27,38.48 -0.01,14.711 -9.72,28.551 -27,38.481 -17.35,9.988 -39.5,14.796 -61.64,14.808 -22.14,-0.012 -44.29,-4.82 -61.65,-14.808 -17.27,-9.93 -26.97,-23.77 -26.99,-38.481 0.02,-14.699 9.72,-28.551 26.99,-38.48 17.36,-9.993 39.51,-14.789 61.65,-14.813 22.14,0.024 44.29,4.82 61.64,14.813 l -2.5,4.328 -2.5,4.332 c -15.31,-8.86 -35.97,-13.492 -56.64,-13.473 -20.68,-0.019 -41.34,4.613 -56.65,13.473 -15.38,8.937 -22.01,19.808 -21.99,29.82 -0.02,10.008 6.61,20.891 21.99,29.82 15.31,8.86 35.97,13.489 56.65,13.469 20.67,0.02 41.33,-4.609 56.64,-13.469 15.39,-8.929 22.02,-19.812 22,-29.82 0.02,-10.012 -6.61,-20.891 -22,-29.82 l 2.5,-4.332"
         style="fill:#e2e2e0;fill-opacity:1;fill-rule:nonzero;stroke:none"
         id="path38" /><path
         d="m 1159.55,1751.74 193.92,111.95 c 11.56,6.68 12.14,17.18 1.29,23.44 -10.85,6.27 -29.03,5.94 -40.6,-0.74 l -193.91,-111.96 c -11.57,-6.68 -12.15,-17.18 -1.3,-23.44 10.86,-6.26 29.04,-5.93 40.6,0.75"
         style="fill:#040606;fill-opacity:1;fill-rule:nonzero;stroke:none"
         id="path40" /><path
         d="m 1833.97,2049.99 c -17.69,10.21 -36.14,4.31 -53.87,-5.98 L 843.418,1503.2 c -17.688,-10.2 -17.762,-26.83 0.02,-37.1 L 2376.23,581.141 c 17.78,-10.262 46.52,-10.18 64.29,-0.032 l 936.59,540.861 c 17.82,10.24 17.76,26.83 0.07,37.05 l -1543.21,890.97"
         style="fill:#56C6FF;fill-opacity:1;fill-rule:nonzero;stroke:none"
         id="path42" /><path
         d="m 2408.34,573.469 c -11.32,0 -22.63,2.422 -31.42,7.281 -0.23,0.129 -0.46,0.262 -0.69,0.391 L 843.438,1466.1 c -8.891,5.13 -13.317,11.86 -13.309,18.57 0.004,6.72 4.445,13.43 13.289,18.53 l 616.662,356.04 v -51.06 c 0,-15.94 11.29,-35.5 25.09,-43.46 v 0 l 28.28,-16.33 c 6.9,-3.98 16,-5.98 25.09,-5.98 6.25,0 12.51,0.95 18.05,2.83 0,0 0,0 0.01,0 0.12,0.04 0.24,0.09 0.36,0.13 0.03,0.01 0.05,0.01 0.07,0.02 0.04,0.02 0.08,0.03 0.12,0.04 0.04,0.02 0.08,0.03 0.13,0.05 0.02,0.01 0.04,0.01 0.06,0.02 0.17,0.06 0.33,0.12 0.5,0.18 0.02,0.01 0.04,0.02 0.06,0.03 1.07,0.4 2.12,0.84 3.13,1.32 0.32,0.15 0.63,0.3 0.95,0.46 0.02,0.02 0.05,0.03 0.08,0.04 0.03,0.02 0.06,0.03 0.08,0.05 0.02,0 0.03,0.01 0.04,0.02 0.16,0.08 0.31,0.16 0.47,0.24 0.01,0.01 0.03,0.02 0.04,0.03 0.32,0.17 0.63,0.34 0.94,0.52 v 0 l 303.56,175.26 92.81,53.58 1417.18,-818.21 c 8.84,-5.11 13.28,-11.81 13.28,-18.52 0,-6.7 -4.44,-13.41 -13.35,-18.53 L 2440.52,581.109 v 0 c -0.28,-0.148 -0.55,-0.308 -0.83,-0.461 -0.03,-0.007 -0.05,-0.027 -0.08,-0.039 -0.06,-0.039 -0.13,-0.07 -0.2,-0.109 -8.73,-4.672 -19.88,-7.02 -31.03,-7.031 -0.01,0 -0.03,0 -0.04,0"
         style="fill:#ceeee7;fill-opacity:1;fill-rule:nonzero;stroke:none"
         id="path44" /><path
         d="m 951.32,1454.6 -9.972,5.76 c -2.16,1.25 -2.164,3.27 -0.012,4.51 l 1.078,0.63 c 2.149,1.24 5.645,1.24 7.801,0 l 9.984,-5.77 c 2.153,-1.24 2.156,-3.26 0.004,-4.51 l -1.078,-0.62 c -2.148,-1.25 -5.645,-1.25 -7.805,0"
         style="fill:#33535f;fill-opacity:1;fill-rule:nonzero;stroke:none"
         id="path46" /><path
         d="m 969.09,1464.87 -17.242,9.95 c -2.157,1.25 -2.157,3.27 0,4.51 l 1.09,0.63 c 2.16,1.24 5.656,1.24 7.808,0 l 17.246,-9.95 c 2.156,-1.25 2.156,-3.27 0,-4.51 l -1.09,-0.63 c -2.16,-1.24 -5.66,-1.24 -7.812,0"
         style="fill:#33535f;fill-opacity:1;fill-rule:nonzero;stroke:none"
         id="path48" /><path
         d="m 986.902,1475.15 -24.496,14.14 c -2.16,1.25 -2.16,3.27 -0.004,4.51 l 1.075,0.62 c 2.156,1.25 5.648,1.25 7.804,0 l 24.504,-14.14 c 2.156,-1.25 2.156,-3.26 0.004,-4.51 l -1.078,-0.62 c -2.152,-1.25 -5.648,-1.25 -7.809,0"
         style="fill:#33535f;fill-opacity:1;fill-rule:nonzero;stroke:none"
         id="path50" /><path
         d="m 1004.67,1485.42 -42.299,24.42 c -2.152,1.24 -2.152,3.26 0.012,4.5 l 1.094,0.63 c 2.16,1.25 5.656,1.25 7.808,0 l 42.265,-24.42 c 2.16,-1.24 2.16,-3.26 0,-4.51 l -1.08,-0.62 c -2.15,-1.25 -5.64,-1.25 -7.8,0"
         style="fill:#33535f;fill-opacity:1;fill-rule:nonzero;stroke:none"
         id="path52" /><path
         d="m 1043.59,1519.46 -15.47,8.93 1,-17.29 z m 12.14,-7.91 -1.96,0.5 -6.21,3.59 -19.93,-11.52 c -1.1,-0.62 -2.08,-0.69 -2.96,-0.18 l -2.23,1.29 -0.99,0.78 -0.3,0.99 -1.04,25.07 0.2,1.05 1.16,0.93 2.78,1.6 2.31,0.77 2.09,-0.55 21.68,-12.53 4.4,2.55 2.22,0.75 2,-0.58 1.48,-0.85 0.91,-1.1 -1.32,-1.27 -4.4,-2.55 6.2,-3.58 0.88,-1.13 -1.4,-1.32 -3.36,-1.93 -2.21,-0.78"
         style="fill:#33535f;fill-opacity:1;fill-rule:nonzero;stroke:none"
         id="path54" /><path
         d="m 1075.65,1527.4 c -7.25,-0.34 -13.98,1.3 -20.18,4.89 -6.18,3.56 -8.98,7.45 -8.42,11.65 0.56,4.2 4.39,8.35 11.47,12.44 2.85,1.66 5.77,3.05 8.76,4.18 2.98,1.13 5.76,1.9 8.34,2.3 l 1.28,-0.08 0.4,-0.52 0.9,-2.63 -0.26,-0.72 -1.09,-0.32 c -4.23,-0.85 -8.33,-2.41 -12.26,-4.68 -4.78,-2.76 -7.38,-5.61 -7.77,-8.54 -0.37,-2.93 1.81,-5.76 6.57,-8.51 4.8,-2.76 9.68,-4.06 14.65,-3.87 4.96,0.18 9.75,1.61 14.37,4.27 1.68,0.97 3.19,1.98 4.55,3.04 1.35,1.05 2.32,2 2.9,2.83 l -10.08,5.82 -8.31,-4.79 -2.22,-0.75 -2.01,0.57 -1.42,0.82 -0.92,1.12 1.34,1.26 13.27,7.66 c 0.92,0.53 1.78,0.8 2.56,0.81 l 2.37,-0.68 14.39,-8.3 1.03,-0.82 -0.08,-0.89 c -1.75,-3.44 -5.94,-7.08 -12.57,-10.91 -7.14,-4.12 -14.32,-6.34 -21.56,-6.65"
         style="fill:#33535f;fill-opacity:1;fill-rule:nonzero;stroke:none"
         id="path56" /><path
         d="m 1352.4,1721.7 23.55,-13.59 c 1.76,-1.02 4.62,-1.02 6.39,-0.01 l 23.63,13.61 c 1.76,1.02 1.77,2.67 0,3.69 l -23.58,13.62 c -1.76,1.01 -4.62,1.01 -6.39,-0.01 l -23.6,-13.62 c -1.76,-1.02 -1.76,-2.67 0,-3.69"
         style="fill:#33535f;fill-opacity:1;fill-rule:nonzero;stroke:none"
         id="path58" /><path
         d="m 1368.68,1740.14 c -2.54,1.47 -6.12,2.28 -10.1,2.28 -3.99,-0.01 -7.57,-0.81 -10.11,-2.28 -4.54,-2.63 -4.55,-6.75 0,-9.38 l 8.1,-4.67 5.97,1.14 -8.1,4.68 c -3.31,1.92 -3.3,5.16 0,7.08 1.25,0.72 2.79,1.13 4.13,1.13 1.39,0 2.9,-0.41 4.15,-1.13 l 8.11,-4.67 5.97,1.14 -8.12,4.68"
         style="fill:#33535f;fill-opacity:1;fill-rule:nonzero;stroke:none"
         id="path60" /><path
         d="m 1759.76,1927.99 c -1.62,0 -3.38,0.48 -4.82,1.31 l -21.75,12.56 c -3.79,2.19 -3.79,5.89 0.01,8.08 l 59.74,34.47 c 0.93,0.54 2,0.93 3.07,1.14 l 1.76,0.17 c 1.62,0 3.38,-0.48 4.81,-1.3 l 21.75,-12.57 c 3.81,-2.19 3.81,-5.88 0.01,-8.07 l -59.75,-34.48 c -1.44,-0.84 -3.17,-1.31 -4.83,-1.31 m 38.01,60.25 c -4.49,0 -8.5,-0.91 -11.37,-2.56 l -59.74,-34.48 c -5.16,-2.97 -5.16,-7.63 -0.02,-10.6 l 21.75,-12.56 c 2.87,-1.65 6.91,-2.57 11.38,-2.57 1.91,0 3.77,0.17 5.52,0.51 2.27,0.43 4.23,1.13 5.84,2.06 l 59.75,34.47 c 5.15,2.98 5.16,7.63 0.01,10.61 l -21.76,12.56 c -2.86,1.65 -6.89,2.56 -11.36,2.56"
         style="fill:#33535f;fill-opacity:1;fill-rule:nonzero;stroke:none"
         id="path62" /><path
         d="m 1761.54,1932.22 -0.85,0.48 -19.59,11.3 c -2.7,1.57 -2.7,4.42 0.01,5.98 l 53.78,31.03 1.08,0.48 0.87,-0.48 19.58,-11.3 c 2.71,-1.57 2.7,-4.42 -0.01,-5.99 l -53.77,-31.02 -1.1,-0.48"
         style="fill:#33535f;fill-opacity:1;fill-rule:nonzero;stroke:none"
         id="path64" /><path
         d="m 1812.24,1987.3 c 2.19,1.28 7.59,0.23 12.05,-2.35 l 4.04,-2.33 c 4.47,-2.58 6.37,-5.77 4.25,-7.11 l -3.84,-2.44 -20.45,11.91 c 0,0 1.77,1.04 3.95,2.32"
         style="fill:#33535f;fill-opacity:1;fill-rule:nonzero;stroke:none"
         id="path66" /><path
         d="m 1484.61,1479.1 c -29.27,12.67 -54.24,10.91 -73.14,0 -15.85,-9.15 -19.11,-22.39 -1.51,-32.55 17.16,-9.91 37.33,-8.54 56.84,2.72 10.97,6.33 19.28,16.67 17.81,29.83 z m -14.14,-79.45 c 13.72,0.53 30.16,4.75 42.04,11.6 24.4,14.09 30.71,33.31 -8,57.42 -0.77,-12.58 -11.41,-26.13 -25.44,-34.23 -33.21,-19.18 -71.01,-24.1 -101.42,-6.54 -29.03,16.76 -19.83,43.47 13.4,62.65 37.78,21.81 92.02,27.78 140.95,-0.46 56.47,-32.61 43.76,-67.14 3.85,-90.19 -23.16,-13.36 -47.56,-19 -68.26,-20.4 l 2.88,20.15"
         style="fill:#33535f;fill-opacity:1;fill-rule:nonzero;stroke:none"
         id="path68" /><path
         d="m 1632.45,1496.86 c 12.79,7.4 30.09,8.66 40.38,2.72 10.28,-5.93 8.08,-15.92 -4.71,-23.31 -12.79,-7.38 -30.41,-8.84 -40.69,-2.9 -10.29,5.94 -7.77,16.11 5.02,23.49 z m -78.18,45.15 c 12.78,7.38 30.08,8.66 40.37,2.72 10.29,-5.94 8.09,-15.93 -4.72,-23.31 -12.79,-7.39 -30.39,-8.85 -40.7,-2.9 -10.28,5.94 -7.75,16.1 5.05,23.49"
         style="fill:#33535f;fill-opacity:1;fill-rule:nonzero;stroke:none"
         id="path70" /><path
         d="m 1744.05,1608.03 c -41.16,23.75 -67.59,23.53 -86.48,12.63 -18.59,-10.74 -19.27,-26.18 21.88,-49.94 41.15,-23.75 69.27,-24.15 87.86,-13.42 18.88,10.9 17.89,26.97 -23.26,50.73 z m -98.12,-56.65 c -49.16,28.37 -49.17,57.93 -8.93,81.16 40.22,23.22 91.63,23.08 140.56,-5.17 49.16,-28.38 50.55,-58.73 10.34,-81.96 -40.24,-23.22 -92.81,-22.42 -141.97,5.97"
         style="fill:#33535f;fill-opacity:1;fill-rule:nonzero;stroke:none"
         id="path72" /><path
         d="m 1900.4,1698.29 c -41.15,23.76 -67.59,23.54 -86.48,12.63 -18.59,-10.73 -19.28,-26.17 21.86,-49.93 41.16,-23.76 69.29,-24.15 87.88,-13.43 18.88,10.92 17.9,26.97 -23.26,50.73 z m -98.13,-56.65 c -49.16,28.38 -49.16,57.94 -8.94,81.17 40.24,23.22 91.66,23.08 140.59,-5.17 49.16,-28.38 50.55,-58.73 10.31,-81.95 -40.22,-23.23 -92.8,-22.43 -141.96,5.95"
         style="fill:#33535f;fill-opacity:1;fill-rule:nonzero;stroke:none"
         id="path74" /><path
         d="m 1550.21,1180.19 786.81,454.22 c 16.62,9.59 43.57,9.59 60.19,0 L 2598.3,1518.3 c 16.62,-9.59 16.62,-25.15 0,-34.74 l -786.68,-454.23 c -16.62,-9.6 -43.57,-9.6 -60.2,-0.01 l -201.2,116.12 c -16.63,9.6 -16.63,25.15 -0.01,34.75"
         style="fill:#56C6FF;fill-opacity:1;fill-rule:nonzero;stroke:none"
         id="path76" /><path
         d="m 1634.44,1164.81 140.73,-81.26 c 7.18,-4.14 18.81,-4.14 25.99,0 l 207.43,119.76 c 7.18,4.14 7.18,10.86 0,15 l -140.74,81.25 c -7.17,4.15 -18.81,4.15 -25.98,0 l -207.43,-119.75 c -7.18,-4.14 -7.18,-10.86 0,-15"
         style="fill:#fafaf9;fill-opacity:1;fill-rule:nonzero;stroke:none"
         id="path78" /><path
         d="m 1846.96,1203.85 166.96,6.62 -166.28,2.48 6.67,89.72 -27.26,-110.69 -197.98,-19.57 161.65,7.6 -4,-99.49 12.42,99.88 46.23,2.18 1.59,21.27"
         style="fill:#56C6FF;fill-opacity:1;fill-rule:nonzero;stroke:none"
         id="path80" /><path
         d="m 1934.72,1342.27 203.3,116.9 c 9.24,5.34 23.9,5.52 32.74,0.42 8.83,-5.1 8.5,-13.56 -0.74,-18.9 l -203.3,-116.9 c -9.25,-5.33 -23.9,-5.52 -32.74,-0.42 -8.84,5.1 -8.5,13.56 0.74,18.9"
         style="fill:#fafaf9;fill-opacity:1;fill-rule:nonzero;stroke:none"
         id="path82" /><path
         d="m 1997.27,1306.16 412.04,238.07 c 9.25,5.34 23.91,5.53 32.75,0.43 8.83,-5.11 8.5,-13.57 -0.74,-18.9 l -412.05,-238.08 c -9.25,-5.33 -23.91,-5.53 -32.74,-0.43 -8.84,5.11 -8.5,13.57 0.74,18.91"
         style="fill:#fafaf9;fill-opacity:1;fill-rule:nonzero;stroke:none"
         id="path84" /><path
         d="m 2059.82,1270.04 412.04,238.08 c 9.25,5.34 23.91,5.53 32.74,0.42 8.84,-5.1 8.51,-13.56 -0.73,-18.9 l -412.06,-238.07 c -9.24,-5.34 -23.9,-5.53 -32.73,-0.43 -8.84,5.1 -8.51,13.57 0.74,18.9"
         style="fill:#fafaf9;fill-opacity:1;fill-rule:nonzero;stroke:none"
         id="path86" /><path
         d="m 1460.08,2821.07 1333.81,770.08 53.37,-30.81 c 13.8,-7.97 25.09,-27.52 25.09,-43.46 v -983.93 c 0,-15.93 -11.29,-35.49 -25.09,-43.45 L 1563.63,1748.39 c -13.8,-7.97 -36.38,-7.97 -50.18,0 l -28.28,16.33 c -13.8,7.96 -25.09,27.52 -25.09,43.46 v 1012.89"
         style="fill:#56C6FF;fill-opacity:1;fill-rule:nonzero;stroke:none"
         id="path88" /><path
         d="m 1538.54,1742.41 c -9.09,0 -18.19,2 -25.09,5.98 l -28.28,16.33 28.28,-16.33 c 6.9,-3.98 16,-5.97 25.09,-5.97 6.26,0 12.51,0.94 18.05,2.82 -5.54,-1.88 -11.8,-2.83 -18.05,-2.83 m 18.06,2.83 c 0.12,0.04 0.24,0.09 0.36,0.13 -0.12,-0.04 -0.24,-0.09 -0.36,-0.13 m 0.43,0.15 c 0.04,0.02 0.08,0.03 0.12,0.04 -0.04,-0.01 -0.08,-0.02 -0.12,-0.04 m 0.25,0.09 c 0.02,0.01 0.04,0.01 0.06,0.02 -0.02,-0.01 -0.04,-0.01 -0.06,-0.02 m 0.56,0.2 c 0.02,0.01 0.04,0.02 0.06,0.03 -0.02,-0.01 -0.04,-0.02 -0.06,-0.03 m 3.19,1.35 c 0.32,0.15 0.63,0.3 0.95,0.46 -0.32,-0.16 -0.63,-0.31 -0.95,-0.46 m 1.03,0.5 c 0.03,0.02 0.06,0.03 0.08,0.05 -0.02,-0.02 -0.05,-0.03 -0.08,-0.05 m 0.12,0.07 c 0.16,0.08 0.31,0.16 0.47,0.24 -0.16,-0.08 -0.31,-0.16 -0.47,-0.24 m 0.51,0.27 c 0.32,0.17 0.63,0.34 0.94,0.52 -0.31,-0.18 -0.62,-0.35 -0.94,-0.52 m 0.94,0.52 14.12,8.15 1.31,0.77 288.13,166.34 -303.56,-175.26 m 441.98,255.17 v 0.03 l 260.91,150.61 -260.91,-150.63 m -390.01,761.57 -0.11,0.03 v 122.08 l 0.11,0.06 v -122.17 m -63.93,3.03 -25.14,14.52 4.56,-2.62 20.59,-11.9 c 0,0 0,0 -0.01,0 m 0.17,0.07 c 1.26,0.56 2.6,0.94 3.95,1.23 1.42,0.25 2.89,0.38 4.4,0.38 0.6,0 1.21,-0.02 1.82,-0.07 -0.55,0.04 -1.1,0.06 -1.64,0.06 -3.07,0 -5.94,-0.56 -8.53,-1.6 m 20.16,11.71 -71.61,40.84 71.61,41.35 v -82.19 m -107.64,38.65 -4.28,2.47 4.28,-2.47 m 1296.07,611.15 v 118.56 l 33.86,19.56 47.7,-27.5 v 0 c -1.46,-0.92 -2.81,-1.96 -4.02,-3.16 -0.01,0 -0.01,-0.01 -0.01,-0.01 -0.01,-0.01 -0.01,-0.01 -0.02,-0.02 -0.76,-0.75 -1.48,-1.58 -2.15,-2.51 v 0 l -75.36,-104.92 M 2862.87,3545 c -0.08,0.12 -0.16,0.24 -0.24,0.36 -0.05,0.08 -0.11,0.16 -0.16,0.24 0.13,-0.2 0.27,-0.4 0.4,-0.6"
         style="fill:#1ab2ff;fill-opacity:1;fill-rule:nonzero;stroke:none"
         id="path90" /><path
         d="m 2786.53,3677.65 5.45,2.97 -20.72,12.04 v -0.02 c -1.78,1.04 -3.62,1.93 -5.5,2.63 l -587.02,217.52 c -15.53,5.76 -35.71,-0.66 -45.07,-14.33 l -656.65,-958.94 c -9.36,-13.67 -16.95,-38.18 -16.95,-54.75 0.01,-27.4 0.01,-63.68 0.01,-63.68 l 20.35,-11.82 1313.46,781.88 v 63.7 c 0,7.75 -2.84,15.8 -7.36,22.8"
         style="fill:#56C6FF;fill-opacity:1;fill-rule:nonzero;stroke:none"
         id="path92" /><path
         d="m 1485.07,2900.36 -20.32,11.75 c 1.5,5 3.31,9.9 5.3,14.5 l 0.2,0.4 c 0.9,2 1.8,3.9 2.81,5.8 l 0.49,0.9 c 1.1,2.1 2.3,4.1 3.5,5.8 l 94.95,138.66 v -41.46 l -74.65,-109 c -0.97,-1.44 -1.93,-3 -2.86,-4.65 -3.68,-6.5 -6.96,-14.5 -9.42,-22.7 m 130.42,199.86 v 41.46 l 0.1,0.16 0.01,-41.47 -0.11,-0.15 m 157.93,272.1 360.23,526.09 c 0.67,1 1.38,1.87 2.13,2.72 0.39,0.43 0.79,0.86 1.19,1.29 -0.06,-0.06 -0.11,-0.12 -0.17,-0.17 0.05,0.05 0.1,0.11 0.15,0.16 0.05,0.05 0.11,0.11 0.16,0.16 -0.05,-0.05 -0.1,-0.1 -0.14,-0.15 0.16,0.16 0.32,0.32 0.48,0.49 0.46,0.44 0.92,0.88 1.39,1.3 0.42,0.38 0.84,0.74 1.27,1.09 0.12,0.1 0.24,0.2 0.36,0.3 l 20.27,-11.72 c -2.59,-2.1 -4.87,-4.53 -6.72,-7.24 l -333.61,-487.19 -46.99,-27.13 m 365.91,532.33 c 0.37,0.33 0.75,0.65 1.12,0.96 v 0 0 l 0.02,-0.01 c -0.12,-0.1 -0.24,-0.2 -0.36,-0.3 -0.26,-0.21 -0.52,-0.43 -0.78,-0.65"
         style="fill:#0099e6;fill-opacity:1;fill-rule:nonzero;stroke:none"
         id="path94" /><path
         d="m 2769.83,3693.44 c -1.33,0.7 -2.69,1.32 -4.07,1.83 l -5.33,1.98 v 0.03 l 5.32,-1.97 c 1.4,-0.51 2.75,-1.14 4.08,-1.87 m -267.75,99.54 -323.34,119.81 c -2.71,1.01 -5.56,1.64 -8.47,1.93 2.91,-0.28 5.76,-0.91 8.48,-1.91 l 323.36,-119.81 -0.03,-0.02"
         style="fill:#ffffff;fill-opacity:1;fill-rule:nonzero;stroke:none"
         id="path96" /><path
         d="m 2790.1,3681.68 c -1.3,0.67 -2.64,1.27 -3.99,1.77 l -25.68,9.52 v 4.28 l 5.33,-1.98 c 1.38,-0.51 2.74,-1.13 4.07,-1.83 0.47,-0.26 0.95,-0.54 1.42,-0.83 l 18.85,-10.93 m -292.54,108.7 -298.51,110.64 c -3.84,1.42 -7.96,2.09 -12.14,2.09 -3.74,0 -7.52,-0.54 -11.17,-1.57 -5.48,-1.53 -10.67,-4.14 -15,-7.66 l -20.27,11.72 c 0.01,0.01 0.01,0.01 0.01,0.01 0,0 0,0 -0.01,-0.01 l -0.02,0.01 c 7.27,5.89 16.85,9.28 26.21,9.28 1.21,0 2.41,-0.05 3.61,-0.17 2.91,-0.29 5.76,-0.92 8.47,-1.93 l 323.34,-119.81 -4.52,-2.6 m -357.07,115.23 h -0.01 0.01"
         style="fill:#0099e6;fill-opacity:1;fill-rule:nonzero;stroke:none"
         id="path98" /><path
         d="m 1473.52,2933.75 c 1.13,2.07 2.3,4.01 3.5,5.77 -1.2,-1.75 -2.37,-3.7 -3.5,-5.77"
         style="fill:#56C6FF;fill-opacity:1;fill-rule:nonzero;stroke:none"
         id="path100" /><path
         d="m 2136.97,3902.42 c 1.1,1.12 2.28,2.19 3.51,3.19 -1.23,-1.01 -2.43,-2.04 -3.51,-3.19"
         style="fill:#56C6FF;fill-opacity:1;fill-rule:nonzero;stroke:none"
         id="path102" /><path
         d="m 1464.72,2912.09 c 1.5,5.02 3.32,9.96 5.33,14.54 -2.02,-4.58 -3.83,-9.51 -5.33,-14.54"
         style="fill:#56C6FF;fill-opacity:1;fill-rule:nonzero;stroke:none"
         id="path104" /><path
         d="m 1470.22,2927.05 c 0.9,2.01 1.85,3.91 2.82,5.74 -0.97,-1.83 -1.92,-3.73 -2.82,-5.74"
         style="fill:#56C6FF;fill-opacity:1;fill-rule:nonzero;stroke:none"
         id="path106" /><path
         d="m 1470.05,2926.63 0.17,0.42 -0.17,-0.42"
         style="fill:#0077b3;fill-opacity:1;fill-rule:nonzero;stroke:none"
         id="path108" /><path
         d="m 1464.72,2912.08 v 0.01 -0.01"
         style="fill:#0077b3;fill-opacity:1;fill-rule:nonzero;stroke:none"
         id="path110" /><path
         d="m 2140.48,3905.61 h 0.01 -0.01"
         style="fill:#3bbca4;fill-opacity:1;fill-rule:nonzero;stroke:none"
         id="path112" /><path
         d="m 1473.04,2932.79 0.48,0.96 -0.48,-0.96"
         style="fill:#0077b3;fill-opacity:1;fill-rule:nonzero;stroke:none"
         id="path114" /><path
         d="m 2133.75,3898.59 c 0.01,0 0.01,0 0.01,0.01 0,0 0,-0.01 -0.01,-0.01"
         style="fill:#c3c5c2;fill-opacity:1;fill-rule:nonzero;stroke:none"
         id="path116" /><path
         d="m 2133.67,3898.46 c 0.02,0.04 0.05,0.09 0.08,0.13 0.01,0 0.01,0.01 0.01,0.01 0.02,0.02 0.03,0.04 0.05,0.06 -0.05,-0.06 -0.1,-0.13 -0.14,-0.2 m 0.14,0.2 c 0.89,1.28 1.9,2.47 2.99,3.59 -0.35,-0.38 -0.69,-0.75 -1.02,-1.12 -0.7,-0.79 -1.37,-1.6 -1.97,-2.47"
         style="fill:#0077b3;fill-opacity:1;fill-rule:nonzero;stroke:none"
         id="path118" /><path
         d="m 2135.78,3901.13 c 0.33,0.37 0.67,0.74 1.02,1.12 0.06,0.05 0.11,0.11 0.17,0.17 -0.4,-0.43 -0.8,-0.86 -1.19,-1.29"
         style="fill:#09ac94;fill-opacity:1;fill-rule:nonzero;stroke:none"
         id="path120" /><path
         d="M 2154.02,3886.64 1497.37,2927.7 c -9.36,-13.67 -16.95,-38.18 -16.94,-54.75 0,-27.4 0,-63.68 0,-63.68 l 1333.83,770.12 -0.02,63.64 c 0,16.57 -12.59,34.66 -28.13,40.42 l -587.01,217.52 c -15.54,5.76 -35.72,-0.66 -45.08,-14.33"
         style="fill:#56C6FF;fill-opacity:1;fill-rule:nonzero;stroke:none"
         id="path122" /><path
         d="m 1625.56,1882.35 -42.74,24.74 h -0.11 l -0.43,0.32 v 0.11 c -6.31,3.96 -10.28,11.89 -10.28,23.35 v 1333.09 c 0,12.32 4.72,26.14 12,38.13 l 43.49,-25.06 c -7.39,-12 -12,-25.82 -12,-38.24 V 1905.7 c 0,-11.25 3.86,-19.39 10.07,-23.35"
         style="fill:#dadbd8;fill-opacity:1;fill-rule:nonzero;stroke:none"
         id="path124" /><path
         d="m 1652.34,3302.43 1071.34,618.48 c 20.29,11.72 36.75,2.22 36.75,-21.21 V 2566.64 c 0,-23.43 -16.46,-51.92 -36.75,-63.64 L 1652.36,1884.51 c -20.3,-11.71 -36.75,-2.22 -36.75,21.22 l -0.02,1333.05 c 0,23.43 16.45,51.93 36.75,63.65"
         style="fill:#ededeb;fill-opacity:1;fill-rule:nonzero;stroke:none"
         id="path126" /><path
         d="m 2706.22,3948.52 41.99,-24.31 c -6.53,3 -15.1,2.24 -24.57,-3.51 L 1652.26,3302.38 c -9.6,-5.28 -18.24,-14.64 -24.78,-25.36 l -43.48,25.07 c 6.42,10.71 15.21,19.93 24.74,25.5 l 1071.35,618.47 c 10.28,5.89 19.5,6.42 26.13,2.35 v 0.11"
         style="fill:#fafaf9;fill-opacity:1;fill-rule:nonzero;stroke:none"
         id="path128" /><path
         d="m 1735.87,3232.65 890.96,514.4 c 11.97,6.91 21.65,2 21.65,-10.95 0,-12.95 -9.69,-29.05 -21.66,-35.95 l -890.95,-514.4 c -11.96,-6.9 -21.65,-2 -21.65,10.95 0,12.95 9.69,29.05 21.65,35.95"
         style="fill:#dadbd8;fill-opacity:1;fill-rule:nonzero;stroke:none"
         id="path130" /><path
         d="m 1735.87,3139.16 890.96,514.4 c 11.97,6.91 21.65,2.01 21.65,-10.95 0,-12.95 -9.69,-29.05 -21.66,-35.95 l -890.95,-514.4 c -11.96,-6.9 -21.65,-2 -21.65,10.95 0,12.95 9.69,29.04 21.65,35.95"
         style="fill:#dadbd8;fill-opacity:1;fill-rule:nonzero;stroke:none"
         id="path132" /><path
         d="m 1735.87,3045.67 890.96,514.4 c 11.97,6.91 21.65,2 21.65,-10.95 0,-12.95 -9.69,-29.05 -21.66,-35.95 l -890.95,-514.4 c -11.96,-6.91 -21.65,-2 -21.65,10.95 0,12.95 9.69,29.04 21.65,35.95"
         style="fill:#dadbd8;fill-opacity:1;fill-rule:nonzero;stroke:none"
         id="path134" /><path
         d="m 1735.87,2952.18 890.96,514.4 c 11.97,6.9 21.65,2 21.65,-10.95 0,-12.95 -9.69,-29.05 -21.66,-35.95 l -890.95,-514.4 c -11.96,-6.91 -21.65,-2 -21.65,10.94 0,12.96 9.69,29.05 21.65,35.96"
         style="fill:#dadbd8;fill-opacity:1;fill-rule:nonzero;stroke:none"
         id="path136" /><path
         d="m 1735.87,2858.69 890.96,514.4 c 11.97,6.9 21.65,2 21.65,-10.95 0,-12.96 -9.69,-29.05 -21.66,-35.96 l -890.95,-514.39 c -11.96,-6.91 -21.65,-2.01 -21.65,10.94 0,12.96 9.69,29.05 21.65,35.96"
         style="fill:#dadbd8;fill-opacity:1;fill-rule:nonzero;stroke:none"
         id="path138" /><path
         d="m 1735.87,2765.19 890.96,514.41 c 11.97,6.9 21.66,2 21.66,-10.96 0,-12.95 -9.7,-29.04 -21.67,-35.94 l -890.95,-514.41 c -11.96,-6.9 -21.65,-2 -21.65,10.95 0,12.96 9.69,29.05 21.65,35.95"
         style="fill:#dadbd8;fill-opacity:1;fill-rule:nonzero;stroke:none"
         id="path140" /><path
         d="m 1735.87,2671.7 890.96,514.41 c 11.97,6.9 21.66,2 21.66,-10.95 0,-12.96 -9.7,-29.05 -21.67,-35.96 l -890.95,-514.4 c -11.96,-6.9 -21.65,-2 -21.65,10.95 0,12.96 9.69,29.05 21.65,35.95"
         style="fill:#dadbd8;fill-opacity:1;fill-rule:nonzero;stroke:none"
         id="path142" /><path
         d="m 1735.87,2578.21 890.96,514.41 c 11.97,6.9 21.66,2 21.66,-10.96 0,-12.95 -9.7,-29.05 -21.67,-35.95 l -890.95,-514.4 c -11.96,-6.9 -21.65,-2 -21.65,10.95 0,12.95 9.69,29.05 21.65,35.95"
         style="fill:#dadbd8;fill-opacity:1;fill-rule:nonzero;stroke:none"
         id="path144" /><path
         d="m 2838.51,2519.84 -1.39,-1.99 -555.82,246.53 c -43.66,19.38 -94.77,3.59 -120.12,-36.98 l -594.21,-953.45 -21.97,-12.69 -0.2,-0.1 c -6.66,-3.7 -12.63,-4.2 -17,-1.9 l 611.1,980.63 c 25.36,40.58 76.57,56.36 120.22,37.08 l 579.39,-257.13"
         style="fill:#56C6FF;fill-opacity:1;fill-rule:nonzero;stroke:none"
         id="path146" /><path
         d="m 2157.33,2761.51 c 17.56,15.34 40.07,23.67 63.13,23.67 12.99,0 26.14,-2.64 38.69,-8.17 l 24.6,-10.92 v -0.05 l -24.63,10.93 c -12.53,5.53 -25.68,8.18 -38.67,8.18 -23.03,0 -45.55,-8.34 -63.12,-23.64"
         style="fill:#f4f4f2;fill-opacity:1;fill-rule:nonzero;stroke:none"
         id="path148" /><path
         d="m 2160.96,2727.52 -21.81,12.69 c 5.11,8.13 11.26,15.26 18.18,21.3 17.57,15.3 40.09,23.64 63.12,23.64 12.99,0 26.14,-2.65 38.67,-8.18 l 24.63,-10.93 v -0.03 l -1.14,-1.58 -0.72,0.31 c -12.62,5.58 -25.87,8.24 -38.95,8.24 -32.4,0 -63.74,-16.35 -81.89,-45.31 l -0.09,-0.15"
         style="fill:#33bbff;fill-opacity:1;fill-rule:nonzero;stroke:none"
         id="path150" /><path
         d="m 2871.88,3523.17 h -0.09 c -1.21,7.2 -5.01,9.2 -9.91,5.8 -1.89,-1.3 -4.09,-3.5 -6.39,-6.6 l -2.81,-3.9 -548.49,-763.6 -81.9,-114.1 c -9.2,-13 -29.4,-20.5 -45.1,-16.9 l -70.7,16.8 -539.7,128.4 c -3.9,0.9 -7.6,1 -11,0.4 -1.4,-0.3 -2.8,-0.7 -4.1,-1.3 l 14.9,8.6 520.3,-123.7 70.7,-16.8 c 15.6,-3.7 35.8,3.8 45.1,16.9 l 81.9,114 551.2,767.5 c 1.8,2.5 3.99,4.3 6.2,5.7 l -47.71,27.5 20.01,11.5 32.99,-19 c 12.01,-7 22.1,-22.7 24.6,-37.2"
         style="fill:#56C6FF;fill-opacity:1;fill-rule:nonzero;stroke:none"
         id="path152" /><path
         d="m 2282.62,2764.42 -0.01,0.01 1.14,1.58 h 0.01 l -1.14,-1.59"
         style="fill:#91dacf;fill-opacity:1;fill-rule:nonzero;stroke:none"
         id="path154" /><path
         d="m 2106.56,2640.69 v 0 l 0.15,0.24 0.02,0.02 -0.17,-0.26 m 197.5,114.27 -21.44,9.46 1.14,1.59 20.3,-11.05"
         style="fill:#5cc8bc;fill-opacity:1;fill-rule:nonzero;stroke:none"
         id="path156" /><path
         d="m 2760.43,3429.73 v 0.02 l 75.36,104.92 -75.36,-104.94"
         style="fill:#1ab2ff;fill-opacity:1;fill-rule:nonzero;stroke:none"
         id="path158" /><path
         d="m 2283.8,2766.07 -0.05,0.02 v 0.02 l 0.8,1.1 99.26,138.2 0.1,0.05 -99.32,-138.29 -0.79,-1.1 m 157.56,219.46 57.18,79.61 0.08,0.04 -57.17,-79.6 -0.09,-0.05 m 114.73,159.74 57.18,79.6 0.05,0.03 -57.16,-79.6 -0.07,-0.03 m 91.93,127.95 c 0,0.01 0,0.01 0,0.03 l 112.41,156.5 v -0.02 l -112.41,-156.51"
         style="fill:#d1d2d0;fill-opacity:1;fill-rule:nonzero;stroke:none"
         id="path160" /><path
         d="m 2613.27,3224.87 34.75,48.38 c 0,-0.02 0,-0.02 0,-0.03 l -34.7,-48.32 -0.05,-0.03"
         style="fill:#c0c1bf;fill-opacity:1;fill-rule:nonzero;stroke:none"
         id="path162" /><path
         d="m 2498.54,3065.14 57.55,80.13 0.07,0.03 -57.54,-80.12 -0.08,-0.04"
         style="fill:#c0c1bf;fill-opacity:1;fill-rule:nonzero;stroke:none"
         id="path164" /><path
         d="m 2383.81,2905.41 57.55,80.12 0.09,0.05 -57.54,-80.12 -0.1,-0.05"
         style="fill:#c0c1bf;fill-opacity:1;fill-rule:nonzero;stroke:none"
         id="path166" /><path
         d="m 2837.94,3537.18 c 0.01,0.01 0.01,0.01 0.02,0.02 -0.01,0 -0.01,-0.01 -0.02,-0.02 m 0.03,0.03 c 1.21,1.2 2.56,2.24 4.02,3.16 -1.38,-0.87 -2.75,-1.91 -4.02,-3.16"
         style="fill:#1ab2ff;fill-opacity:1;fill-rule:nonzero;stroke:none"
         id="path168" /><path
         d="m 2862.47,3545.6 c -0.96,1.39 -1.96,2.74 -3.01,4.02 -3.61,4.43 -7.77,8.18 -12.18,10.75 l -27.9,16.06 -5.12,2.96 v 0 0.02 l 32.99,-19 c 5.71,-3.32 10.98,-8.62 15.22,-14.81"
         style="fill:#e0e1de;fill-opacity:1;fill-rule:nonzero;stroke:none"
         id="path170" /><path
         d="m 2862.63,3545.36 c -1,1.47 -2.06,2.9 -3.17,4.26 1.05,-1.28 2.05,-2.63 3.01,-4.02 0.05,-0.08 0.11,-0.16 0.16,-0.24 m -65.09,24.38 16.72,9.65 5.12,-2.96 -5.09,2.94 -16.75,-9.63"
         style="fill:#1ab2ff;fill-opacity:1;fill-rule:nonzero;stroke:none"
         id="path172" /><path
         d="m 2794.31,3567.88 -0.05,0.03 20,11.5 v -0.02 l -16.72,-9.65 -3.23,-1.86"
         style="fill:#0099e6;fill-opacity:1;fill-rule:nonzero;stroke:none"
         id="path174" /><path
         d="m 2283.77,2766.03 -0.02,0.01 v 0.05 l 0.05,-0.02 -0.03,-0.04"
         style="fill:#d6d8d5;fill-opacity:1;fill-rule:nonzero;stroke:none"
         id="path176" /><path
         d="m 2283.76,2766.01 h -0.01 v 0.03 l 0.02,-0.01 -0.01,-0.02"
         style="fill:#50c4b2;fill-opacity:1;fill-rule:nonzero;stroke:none"
         id="path178" /><path
         d="m 2304.15,2754.92 -0.09,0.04 -20.3,11.05 0.01,0.02 0.03,0.04 0.79,1.1 99.32,138.29 57.54,80.12 57.17,79.6 57.54,80.12 57.16,79.6 34.7,48.32 112.41,156.51 75.36,104.94 c 0.66,0.91 1.38,1.74 2.15,2.51 0.01,0.01 0.01,0.02 0.02,0.02 0,0 0,0.01 0.01,0.01 1.27,1.25 2.64,2.29 4.02,3.16 v 0 l 0.08,-0.05 -0.12,0.09 -47.64,27.47 3.23,1.86 16.75,9.63 5.09,-2.94 27.9,-16.06 c 4.41,-2.57 8.57,-6.32 12.18,-10.75 v 0 c 1.11,-1.36 2.17,-2.79 3.17,-4.26 4.34,-6.42 7.56,-13.79 9,-20.93 -1.01,4.12 -2.96,6.23 -5.52,6.23 -2.3,0 -5.1,-1.7 -8.16,-5.18 -0.81,-0.9 -1.64,-1.92 -2.49,-3.07 l -2.81,-3.89 -548.5,-763.61"
         style="fill:#0099e6;fill-opacity:1;fill-rule:nonzero;stroke:none"
         id="path180" /><path
         d="m 1577.75,2753.11 -117.67,67.96 V 1808.18 c 0,-15.94 11.29,-35.5 25.09,-43.46 l 28.28,-16.33 c 13.8,-7.97 36.38,-7.97 50.18,0 l 14.12,8.15 v 996.57"
         style="fill:#56C6FF;fill-opacity:1;fill-rule:nonzero;stroke:none"
         id="path182" /><path
         d="m 1538.54,1742.42 c -9.09,0 -18.19,1.99 -25.09,5.97 l -28.28,16.33 c -13.8,7.96 -25.09,27.52 -25.09,43.46 v 51.06 263.4 698.43 l 20.37,-11.77 -0.06,-0.03 46.14,-26.58 25.14,-14.52 c -7.89,-3.26 -13.08,-11.06 -13.08,-21.3 v -967.58 l -0.03,-0.03 v -0.03 l -0.01,-0.02 v -16.3 c 0,-2.38 0.25,-4.54 0.71,-6.48 1.16,-4.86 3.67,-8.29 7.13,-10.06 1.75,-0.91 3.74,-1.39 5.93,-1.39 0.54,0 1.08,0.03 1.63,0.09 2.93,0.28 6.14,1.34 9.53,3.26 v 0 h 0.01 l 0.16,0.08 14.1,8.14 v -0.01 l -14.12,-8.15 c -6.9,-3.98 -15.99,-5.98 -25.09,-5.97"
         style="fill:#1ab2ff;fill-opacity:1;fill-rule:nonzero;stroke:none"
         id="path184" /><path
         d="m 2852.68,3518.47 v -973.2 c 0,-8.2 -2.9,-17.4 -7.79,-25.4 -3.91,-6.6 -9,-12.5 -14.71,-16.4 l -0.9,-0.6 -1.69,-1.1 -1283.6,-741 -0.2,-0.1 c -1.7,-1 -3.3,-1.8 -4.9,-2.3 -0.2,1.4 -0.3,2.9 -0.3,4.5 v 984 c 0,15.9 12.5,25.9 28.2,22.2 l 539.7,-128.4 70.7,-16.8 c 15.7,-3.6 35.9,3.9 45.1,16.9 l 81.9,114.1 548.49,763.6"
         style="fill:#33535f;fill-opacity:1;fill-rule:nonzero;stroke:none"
         id="path186" /><path
         d="m 2872.39,3516.87 v -983.9 c 0,-8.3 -3.01,-17.4 -7.8,-25.4 -4.01,-6.6 -9.01,-12.5 -14.7,-16.5 l -1.01,-0.5 -1.6,-1.1 -1283.59,-741 -0.2,-0.1 c -6.71,-3.8 -12.7,-4.3 -17.1,-2 -3.9,2 -6.6,6.1 -7.5,12 -0.2,1.4 -0.3,2.9 -0.3,4.5 v 984 c 0,15.9 12.5,25.9 28.2,22.2 l 539.7,-128.4 70.7,-16.8 c 15.7,-3.6 35.9,3.9 45.1,16.9 l 81.9,114.1 548.49,763.6 2.81,3.9 c 9.29,12.9 16.9,10.5 16.9,-5.5"
         style="fill:#56C6FF;fill-opacity:1;fill-rule:nonzero;stroke:none"
         id="path188" /><path
         d="m 2847.27,2489.46 1.65,1.06 0.96,0.58 c 5.69,3.96 10.72,9.85 14.68,16.42 4.74,7.88 7.69,16.88 7.78,24.98 l -568.11,222.35 380.45,-359.26 162.59,93.87"
         style="fill:#56C6FF;fill-opacity:1;fill-rule:nonzero;stroke:none"
         id="path190" /><path
         d="m 2682.96,2587.69 -378.08,166.91 386.81,-151.39 c -2.99,-5.13 -5.91,-10.3 -8.73,-15.52"
         style="fill:#1ab2ff;fill-opacity:1;fill-rule:nonzero;stroke:none"
         id="path192" /><path
         d="m 1538.56,1762.91 c 0,-8.3 3,-14 7.82,-16.52 4.45,-2.31 10.44,-1.83 17.1,1.94 l 0.2,0.1 441.93,255.13 100.92,637.14 -567.97,-861.44 v -16.35"
         style="fill:#56C6FF;fill-opacity:1;fill-rule:nonzero;stroke:none"
         id="path194" /><path
         d="m 1539.26,1756.43 c -0.46,1.94 -0.71,4.1 -0.71,6.48 v 16.3 l 0.01,-16.3 c 0,-1.46 0.1,-2.84 0.27,-4.13 0.02,-0.14 0.04,-0.28 0.06,-0.41 0.1,-0.67 0.23,-1.32 0.37,-1.94"
         style="fill:#0aac94;fill-opacity:1;fill-rule:nonzero;stroke:none"
         id="path196" /><path
         d="m 1545.91,1746.66 c -3.2,1.84 -5.54,5.16 -6.65,9.77 -0.14,0.62 -0.27,1.27 -0.37,1.94 -0.02,0.13 -0.04,0.27 -0.06,0.41 0.81,-5.83 3.36,-9.97 7.08,-12.12"
         style="fill:#1ab2ff;fill-opacity:1;fill-rule:nonzero;stroke:none"
         id="path198" /><path
         d="m 2085.07,2653.5 -0.02,0.01 21.29,34.13 -21.27,-34.14 m -0.02,0.01 v 0 0"
         style="fill:#c3c5c2;fill-opacity:1;fill-rule:nonzero;stroke:none"
         id="path200" /><path
         d="m 2110.76,2647.4 -23.87,5.67 -1.81,0.43 h -0.01 l 21.27,34.14 32.61,52.27 0.2,0.3 21.8,-12.7 -50.19,-80.11"
         style="fill:#1ab2ff;fill-opacity:1;fill-rule:nonzero;stroke:none"
         id="path202" /><path
         d="m 2085.07,2653.5 -0.02,0.01 v 0 l 0.02,-0.01 v 0"
         style="fill:#c9cac8;fill-opacity:1;fill-rule:nonzero;stroke:none"
         id="path204" /><path
         d="m 2085.08,2653.5 h -0.01 v 0 h 0.01"
         style="fill:#4ac2ad;fill-opacity:1;fill-rule:nonzero;stroke:none"
         id="path206" /><path
         d="m 2106.54,2640.66 h -0.01 v 0.04 l 0.03,-0.01 -0.02,-0.03 m -0.03,0 -0.02,0.01 -25.66,6.1 0.02,0.04 4.2,6.7 0.02,-0.01 h 0.01 l 1.81,-0.43 23.87,-5.67 -4.05,-6.47 -0.26,-0.22 0.08,-0.02 -0.02,-0.03"
         style="fill:#1ab2ff;fill-opacity:1;fill-rule:nonzero;stroke:none"
         id="path208" /><path
         d="m 2106.56,2640.69 h -0.03 v 0.01 l -0.08,0.01 0.26,0.22 -0.15,-0.24"
         style="fill:#4ac2ad;fill-opacity:1;fill-rule:nonzero;stroke:none"
         id="path210" /><path
         d="m 1538.9,1779.77 541.93,867 25.66,-6.1 0.02,-0.01 -567.61,-860.89 m 567.62,860.85 0.01,0.04 h 0.01 l -0.02,-0.04"
         style="fill:#1ab2ff;fill-opacity:1;fill-rule:nonzero;stroke:none"
         id="path212" /><path
         d="m 1546.35,1746.41 c -0.15,0.08 -0.29,0.16 -0.44,0.25 -3.72,2.15 -6.27,6.29 -7.08,12.12 -0.17,1.29 -0.27,2.67 -0.27,4.13 v 16.32 l 0.34,0.54 567.61,860.89 0.02,0.04 v -0.04 l -0.01,-0.04 -560.17,-894.21"
         style="fill:#1ab2ff;fill-opacity:1;fill-rule:nonzero;stroke:none"
         id="path214" /><path
         d="m 2864.56,2507.52 c -3.96,-6.57 -8.99,-12.46 -14.68,-16.42 l -0.96,-0.58 -1285.24,-742.09 -0.2,-0.1 c -6.66,-3.77 -12.65,-4.25 -17.1,-1.94 l 614.67,981.28 c 25.48,40.66 76.95,56.45 120.84,37.07 l 582.67,-257.22"
         style="fill:#56C6FF;fill-opacity:1;fill-rule:nonzero;stroke:none"
         id="path216" /><path
         d="m 2864.55,2507.51 c -3.9,-6.6 -8.99,-12.5 -14.7,-16.4 l -0.9,-0.6 -1285.3,-742.1 -0.2,-0.1 c -6.6,-3.7 -12.6,-4.2 -17.1,-1.9 l 17.1,27.2 1263.1,729.4 1.01,0.6 c 5.09,3.6 9.69,8.7 13.29,14.4 l 23.7,-10.5"
         style="fill:#56C6FF;fill-opacity:1;fill-rule:nonzero;stroke:none"
         id="path218" /><path
         d="m 1460.08,2821.1 -0.03,0.01 c 0,0 0,36.3 0,63.7 0,3.11 0.28,6.51 0.79,10.07 -0.5,-3.57 -0.77,-6.98 -0.77,-10.11 0.01,-27.13 0.01,-62.97 0.01,-63.67"
         style="fill:#d2d4d1;fill-opacity:1;fill-rule:nonzero;stroke:none"
         id="path220" /><path
         d="m 1480.43,2809.32 -20.35,11.78 c 0,0.7 0,36.54 -0.01,63.67 0,3.13 0.27,6.54 0.77,10.11 0.8,5.51 2.15,11.41 3.91,17.23 l 20.32,-11.75 c -2.88,-9.58 -4.64,-19.42 -4.64,-27.41 0,-26.77 0,-62.01 0,-63.63"
         style="fill:#1ab2ff;fill-opacity:1;fill-rule:nonzero;stroke:none"
         id="path222" /><path
         d="m 1480.45,2809.31 -0.02,0.01 c 0,1.62 0,36.86 0,63.63 0,7.99 1.76,17.83 4.64,27.41 l 0.08,-0.05 c -2.9,-9.6 -4.7,-19.4 -4.7,-27.4 0,-27.4 0,-63.6 0,-63.6"
         style="fill:#1ab2ff;fill-opacity:1;fill-rule:nonzero;stroke:none"
         id="path224" /><path
         d="m 1585.41,2772.29 -18.82,4.48 -14.9,-8.6 -20.6,11.9 -50.7,29.2 19.7,11.7 85.32,-48.68"
         style="fill:#56C6FF;fill-opacity:1;fill-rule:nonzero;stroke:none"
         id="path226" /><path
         d="m 1615.6,2765.11 -0.11,0.03 v 0.03 l 0.11,-0.03 v -0.03 m -43.6,10.37 -5.41,1.29 5.41,-1.29 v 0 m 0,4.47 -71.61,40.84 71.61,-40.84 v 0"
         style="fill:#1ab2ff;fill-opacity:1;fill-rule:nonzero;stroke:none"
         id="path228" /><path
         d="m 1615.49,2765.14 -43.49,10.34 v 0 l 13.41,-3.19 -13.41,7.66 v 0 l 13.33,-7.61 0.12,-0.03 30.04,-7.14 v -0.03"
         style="fill:#c0c1bf;fill-opacity:1;fill-rule:nonzero;stroke:none"
         id="path230" /><path
         d="m 2085.05,2653.51 -97.42,23.16 0.01,0.01 97.41,-23.17 v 0 m -154.96,36.84 -57.16,13.59 0.02,0.01 57.16,-13.59 -0.02,-0.01 m -114.7,27.27 -57.16,13.59 0.03,0.01 57.16,-13.59 -0.03,-0.01 m -98.87,23.5 -100.92,23.99 v 0.03 l 100.93,-24 c 0,0 0,-0.01 -0.01,-0.02"
         style="fill:#d1d2d0;fill-opacity:1;fill-rule:nonzero;stroke:none"
         id="path232" /><path
         d="m 1758.23,2731.21 -41.71,9.91 c 0.01,0.01 0.01,0.02 0.01,0.02 l 41.73,-9.92 -0.03,-0.01"
         style="fill:#c0c1bf;fill-opacity:1;fill-rule:nonzero;stroke:none"
         id="path234" /><path
         d="m 1872.93,2703.94 -57.54,13.68 0.03,0.01 57.53,-13.68 -0.02,-0.01"
         style="fill:#c0c1bf;fill-opacity:1;fill-rule:nonzero;stroke:none"
         id="path236" /><path
         d="m 1987.63,2676.67 -57.54,13.68 0.02,0.01 57.53,-13.68 -0.01,-0.01"
         style="fill:#c0c1bf;fill-opacity:1;fill-rule:nonzero;stroke:none"
         id="path238" /><path
         d="m 2080.85,2646.81 -472.6,112.4 -41.5,9.9 c -2.27,0.53 -4.48,0.78 -6.6,0.78 -1.51,0 -2.98,-0.13 -4.4,-0.38 -1.3,-0.28 -2.6,-0.67 -3.82,-1.21 l 14.66,8.47 5.41,-1.29 43.49,-10.34 0.11,-0.03 100.92,-23.99 41.71,-9.91 57.16,-13.59 57.54,-13.68 57.16,-13.59 57.54,-13.68 97.42,-23.16 -4.2,-6.7"
         style="fill:#0099e6;fill-opacity:1;fill-rule:nonzero;stroke:none"
         id="path240" /><path
         d="m 1551.69,2768.17 -20.6,11.9 -4.56,2.62 -46.14,26.58 19.7,11.7 0.3,-0.18 71.61,-40.84 13.41,-7.66 -13.41,3.19 -5.41,1.29 -14.66,-8.47 c -0.01,0 -0.02,0 -0.03,-0.01 l -0.21,-0.12"
         style="fill:#0099e6;fill-opacity:1;fill-rule:nonzero;stroke:none"
         id="path242" /><path
         d="m 3109.58,2733.03 -94.92,55 -0.11,0.06 -0.85,0.49 -0.09,-0.14 c -41.42,23.38 -98.29,19.86 -161.16,-16.43 -126.62,-73.12 -229.3,-250.94 -229.3,-397.17 0,-72.99 25.61,-124.29 66.96,-148.29 v -0.03 l 0.19,-0.11 0.03,-0.02 86.51,-49.64 20.29,33.93 c 20.94,4.81 42.75,12.29 65.76,25.58 126.63,73.11 229.3,250.93 229.33,397.16 0,21.71 -2.92,40.84 -7.19,58.57 l 24.55,41.04"
         style="fill:#f47089;fill-opacity:1;fill-rule:nonzero;stroke:none"
         id="path244" /><path
         d="m 2863.31,2236.5 c 0.08,0.05 0.14,0.09 0.22,0.13 -0.07,-0.04 -0.14,-0.08 -0.22,-0.13 m 0.43,0.25 c 0.08,0.05 0.17,0.1 0.25,0.15 -0.08,-0.05 -0.17,-0.1 -0.25,-0.15 m 0.49,0.29 c 0.12,0.06 0.23,0.13 0.35,0.2 -0.12,-0.07 -0.24,-0.14 -0.35,-0.2 m 0.59,0.34 c 0.07,0.04 0.12,0.07 0.19,0.11 -0.06,-0.03 -0.13,-0.07 -0.19,-0.11 m 0.59,0.35 c 0.01,0 0.01,0.01 0.02,0.01 -0.01,0 -0.01,-0.01 -0.02,-0.01"
         style="fill:#c7c9c7;fill-opacity:1;fill-rule:nonzero;stroke:none"
         id="path246" /><path
         d="m 2623.5,2360.34 c -0.23,4.73 -0.35,9.57 -0.35,14.5 v 0 c 0,-4.93 0.12,-9.77 0.35,-14.5 v 0 m -0.35,15.04 c 0,0.04 0,0.08 0,0.11 0,-0.03 0,-0.07 0,-0.11 m 0.01,0.63 c 0,0 0,0 0,0.01 v -0.01"
         style="fill:#1ab2ff;fill-opacity:1;fill-rule:nonzero;stroke:none"
         id="path248" /><path
         d="m 2776.84,2176.75 -86.51,49.64 -0.03,0.02 -0.19,0.11 v 0.03 0 c -38.56,22.38 -63.42,68.49 -66.61,133.79 -0.23,4.73 -0.35,9.57 -0.35,14.5 0,0.18 0,0.36 0,0.54 0,0.04 0,0.08 0,0.11 0,0.18 0,0.35 0.01,0.52 v 0.01 c 0.09,24.62 3.15,50.12 8.65,75.86 l 293.58,-169.49 c -19.1,-17.27 -39.18,-32.39 -59.96,-44.65 -0.01,0 -0.01,-0.01 -0.02,-0.01 -0.13,-0.08 -0.27,-0.16 -0.4,-0.24 -0.07,-0.04 -0.12,-0.07 -0.19,-0.11 -0.08,-0.05 -0.16,-0.09 -0.24,-0.14 -0.12,-0.07 -0.23,-0.14 -0.35,-0.2 -0.08,-0.05 -0.16,-0.1 -0.24,-0.14 -0.08,-0.05 -0.17,-0.1 -0.25,-0.15 -0.07,-0.04 -0.14,-0.08 -0.21,-0.12 -0.08,-0.04 -0.14,-0.08 -0.22,-0.13 -0.14,-0.08 -0.28,-0.16 -0.42,-0.24 v 0 c -23.01,-13.29 -44.82,-20.77 -65.76,-25.58 l -20.29,-33.93"
         style="fill:#e96374;fill-opacity:1;fill-rule:nonzero;stroke:none"
         id="path250" /><path
         d="m 2942.72,2719.98 c -126.64,-73.12 -229.3,-250.93 -229.31,-397.16 0,-146.23 102.66,-205.5 229.3,-132.39 126.64,73.12 229.31,250.94 229.32,397.16 0,146.23 -102.66,205.5 -229.31,132.39"
         style="fill:#f6879f;fill-opacity:1;fill-rule:nonzero;stroke:none"
         id="path252" /><path
         d="m 3033.31,2516.38 v 56.18 c 0,64.1 -38.98,93.57 -87.05,65.81 -48.08,-27.76 -87.04,-102.22 -87.04,-166.33 v -50.21 c 0,-31.58 -10.98,-67.47 -29.3,-98.06 l -0.13,-0.21 c -4.37,-7.87 -7.12,-17.14 -7.12,-25.68 0,-16.14 9.82,-23.56 21.93,-16.57 l 203.33,117.39 c 12.11,6.99 21.92,25.75 21.92,41.89 0,8.08 -2.45,13.97 -6.42,16.97 l -0.34,0.2 c -17.96,8.1 -29.78,28.37 -29.78,58.62"
         style="fill:#ffffff;fill-opacity:1;fill-rule:nonzero;stroke:none"
         id="path254" /><path
         d="m 2988.06,2346.77 c 0,-30.77 -18.72,-66.52 -41.8,-79.85 -23.08,-13.32 -41.79,0.82 -41.79,31.59 l 83.59,48.26"
         style="fill:#ffffff;fill-opacity:1;fill-rule:nonzero;stroke:none"
         id="path256" /></g></g></svg>
