<?xml version="1.0" encoding="UTF-8" standalone="no"?>
<!DOCTYPE svg PUBLIC "-//W3C//DTD SVG 20010904//EN"
              "http://www.w3.org/TR/2001/REC-SVG-20010904/DTD/svg10.dtd">

<svg xmlns="http://www.w3.org/2000/svg"
     width="0.9in" height="0.9in"
     viewBox="0 0 81 81">
        <path id="line"
        fill="#56C6FF" stroke="none"
        d="M 59.09,56.35
           C 59.09,56.35 38.91,56.30 38.91,56.30
             38.91,56.30 29.00,56.33 29.00,56.33
             29.00,56.33 21.00,56.35 21.00,56.35
             21.00,56.35 20.55,60.73 20.55,60.73
             20.55,60.73 60.70,61.26 60.70,61.26
             60.70,61.26 60.39,56.35 60.39,56.35
             60.39,56.35 59.04,56.35 59.04,56.35M 40.65,56.39" />
  <path id="Chemin importé"
        fill="black" stroke="black" stroke-width="1"
        d="M 35.38,12.00
           C 33.25,13.12 30.75,15.62 30.00,17.62
             28.75,20.37 27.62,21.25 24.88,21.25
             21.88,21.25 21.25,21.88 20.75,25.25
             20.00,29.62 17.50,62.50 17.50,67.25
             17.50,70.00 17.62,70.00 40.62,70.00
             40.62,70.00 63.75,70.00 63.75,70.00
             63.75,70.00 63.75,67.00 63.75,67.00
             63.75,62.75 61.38,33.12 60.50,26.50
             59.88,21.75 59.50,21.25 56.38,21.25
             53.63,21.25 52.50,20.37 51.25,17.62
             50.38,15.50 48.00,13.12 45.62,12.00
             40.62,9.62 40.38,9.62 35.38,12.00 Z
           M 45.00,14.38
           C 47.12,15.50 48.75,16.50 48.75,16.75
             48.75,17.12 49.13,18.12 49.50,19.25
             50.12,21.00 48.88,21.25 40.75,21.25
             35.50,21.25 31.25,20.75 31.25,20.25
             31.25,17.87 37.38,12.62 40.38,12.50
             40.88,12.50 43.00,13.37 45.00,14.38 Z
           M 28.75,28.12
           C 28.75,30.50 29.38,32.50 30.00,32.50
             30.75,32.50 31.25,30.50 31.25,28.12
             31.25,28.12 31.25,23.75 31.25,23.75
             31.25,23.75 40.62,23.75 40.62,23.75
             40.62,23.75 50.00,23.75 50.00,23.75
             50.00,23.75 50.00,28.12 50.00,28.12
             50.00,30.50 50.62,32.50 51.25,32.50
             52.00,32.50 52.50,30.50 52.50,28.00
             52.50,24.12 52.88,23.62 55.38,24.00
             58.38,24.38 58.50,25.62 60.38,55.88
             60.38,55.88 61.13,67.50 61.13,67.50
             61.13,67.50 40.38,67.50 40.38,67.50
             40.38,67.50 19.75,67.50 19.75,67.50
             19.75,67.50 20.50,61.62 20.50,61.62
             20.88,58.25 21.50,48.87 22.00,40.62
             22.38,32.38 23.00,25.25 23.38,24.62
             23.63,24.12 25.00,23.75 26.38,23.75
             28.25,23.75 28.75,24.62 28.75,28.12 Z" />
           
</svg>
