<?xml version="1.0" encoding="UTF-8" standalone="no"?>
<!DOCTYPE svg PUBLIC "-//W3C//DTD SVG 20010904//EN"
              "http://www.w3.org/TR/2001/REC-SVG-20010904/DTD/svg10.dtd">

<svg xmlns="http://www.w3.org/2000/svg"
     width="0.9in" height="0.9in"
     viewBox="0 0 81 81">
  <path id="Chemin importé #1"
        fill="black" stroke="black" stroke-width="1"
        d="M 10.88,17.12
           C 9.25,18.62 9.88,54.38 11.50,56.00
             12.38,56.88 17.00,57.50 23.38,57.50
             29.12,57.50 33.75,57.88 33.75,58.38
             33.75,61.12 28.50,67.50 26.25,67.50
             24.88,67.50 23.75,68.00 23.75,68.75
             23.75,69.50 30.38,70.00 41.25,70.00
             52.12,70.00 58.75,69.50 58.75,68.75
             58.75,68.00 57.75,67.50 56.50,67.50
             53.63,67.50 48.75,62.50 48.75,59.62
             48.75,57.75 50.25,57.50 59.38,57.50
             68.50,57.50 70.12,57.12 71.25,55.12
             73.12,51.62 72.88,19.62 71.00,17.75
             69.38,16.12 12.38,15.50 10.88,17.12 Z
           M 69.38,33.12
           C 69.38,33.12 69.38,46.88 69.38,46.88
             69.38,46.88 41.00,47.25 41.00,47.25
             41.00,47.25 12.50,47.50 12.50,47.50
             12.50,47.50 12.50,33.12 12.50,33.12
             12.50,33.12 12.50,18.75 12.50,18.75
             12.50,18.75 41.00,19.00 41.00,19.00
             41.00,19.00 69.38,19.38 69.38,19.38
             69.38,19.38 69.38,33.12 69.38,33.12 Z
           M 70.00,50.88
           C 69.88,54.75 67.75,55.00 40.50,54.75
             15.62,54.38 13.12,54.12 12.75,52.12
             12.38,50.12 14.38,50.00 41.12,50.00
             57.00,50.00 70.00,50.38 70.00,50.88 Z
           M 46.63,61.88
           C 47.75,64.38 48.75,66.62 48.75,66.88
             48.75,67.25 45.12,67.50 40.62,67.50
             40.62,67.50 32.50,67.50 32.50,67.50
             32.50,67.50 35.00,62.50 35.00,62.50
             37.00,58.50 38.25,57.50 41.00,57.50
             43.75,57.50 45.00,58.38 46.63,61.88 Z
           M 40.00,52.50
           C 40.00,53.12 40.62,53.75 41.25,53.75
             42.00,53.75 42.50,53.12 42.50,52.50
             42.50,51.75 42.00,51.25 41.25,51.25
             40.62,51.25 40.00,51.75 40.00,52.50 Z" />
          <path id="Chemin"
        fill="#56C6FF" stroke="none"
        d="M 35.64,29.83
           C 35.64,29.83 25.56,33.52 25.56,33.52
             25.56,33.52 35.64,37.17 35.64,37.17
             35.64,37.17 35.64,39.00 35.64,39.00
             35.64,39.00 23.12,34.33 23.12,34.33
             23.12,34.33 23.12,32.67 23.12,32.67
             23.12,32.67 35.64,28.00 35.64,28.00
             35.64,28.00 35.64,29.83 35.64,29.83 Z
           M 43.08,25.00
           C 43.08,25.00 44.73,25.00 44.73,25.00
             44.73,25.00 39.66,41.00 39.66,41.00
             39.66,41.00 38.00,41.00 38.00,41.00
             38.00,41.00 43.08,25.00 43.08,25.00 Z
           M 47.12,29.83
           C 47.12,29.83 47.12,28.00 47.12,28.00
             47.12,28.00 59.64,32.67 59.64,32.67
             59.64,32.67 59.64,34.33 59.64,34.33
             59.64,34.33 47.12,39.00 47.12,39.00
             47.12,39.00 47.12,37.17 47.12,37.17
             47.12,37.17 57.17,33.52 57.17,33.52
             57.17,33.52 47.12,29.83 47.12,29.83 Z" />
</svg>
